<?xml version="1.0" encoding="UTF-8" standalone="no"?>
<!-- Generator: Adobe Illustrator 12.0.0, SVG Export Plug-In . SVG Version: 6.00 Build 51448)  -->

<svg
   xmlns:dc="http://purl.org/dc/elements/1.1/"
   xmlns:cc="http://creativecommons.org/ns#"
   xmlns:rdf="http://www.w3.org/1999/02/22-rdf-syntax-ns#"
   xmlns:svg="http://www.w3.org/2000/svg"
   xmlns="http://www.w3.org/2000/svg"
   xmlns:xlink="http://www.w3.org/1999/xlink"
   xmlns:sodipodi="http://sodipodi.sourceforge.net/DTD/sodipodi-0.dtd"
   xmlns:inkscape="http://www.inkscape.org/namespaces/inkscape"
   height="137.16"
   id="Layer_1"
   inkscape:version="0.47pre4 r22446"
   sodipodi:docname="table.svg"
   sodipodi:version="0.32"
   space="preserve"
   style="overflow:visible;enable-background:new 0 0 138.022 137.16;"
   version="1.1"
   viewBox="0 0 138.022 137.16"
   width="138.022"
   inkscape:output_extension="org.inkscape.output.svg.inkscape">
  <metadata
     id="metadata3">
    <rdf:RDF>
      <cc:Work
         rdf:about="">
        <dc:title>Griglia</dc:title>
        <dc:description />
        <dc:subject>
          <rdf:Bag>
            <rdf:li>grid</rdf:li>
          </rdf:Bag>
        </dc:subject>
        <dc:publisher>
          <cc:Agent
             rdf:about="http://www.openclipart.org/">
            <dc:title>Open Clip Art Library</dc:title>
          </cc:Agent>
        </dc:publisher>
        <dc:creator>
          <cc:Agent>
            <dc:title>Architetto Francesco Rollandin</dc:title>
          </cc:Agent>
        </dc:creator>
        <dc:rights>
          <cc:Agent>
            <dc:title>Architetto Francesco Rollandin</dc:title>
          </cc:Agent>
        </dc:rights>
        <dc:date />
        <dc:format>image/svg+xml</dc:format>
        <dc:type
           rdf:resource="http://purl.org/dc/dcmitype/StillImage" />
        <cc:license
           rdf:resource="http://web.resource.org/cc/PublicDomain" />
        <dc:language>en</dc:language>
      </cc:Work>
      <cc:License
         rdf:about="http://web.resource.org/cc/PublicDomain">
        <cc:permits
           rdf:resource="http://web.resource.org/cc/Reproduction" />
        <cc:permits
           rdf:resource="http://web.resource.org/cc/Distribution" />
        <cc:permits
           rdf:resource="http://web.resource.org/cc/DerivativeWorks" />
      </cc:License>
    </rdf:RDF>
  </metadata>
  <defs
     id="defs19">
    <inkscape:perspective
       sodipodi:type="inkscape:persp3d"
       inkscape:vp_x="0 : 68.580002 : 1"
       inkscape:vp_y="0 : 1000 : 0"
       inkscape:vp_z="138.022 : 68.580002 : 1"
       inkscape:persp3d-origin="69.011002 : 45.720001 : 1"
       id="perspective14" />
    <linearGradient
       y2="381.1807"
       y1="381.1807"
       x2="-1289.9851"
       x1="-1292.1372"
       id="XMLID_2_"
       gradientUnits="userSpaceOnUse"
       gradientTransform="matrix(2.1657,10.4264,10.4264,-2.1657,-5508.144,-6816.1445)">
      <stop
         style="stop-color:#F4F4F4"
         offset="0"
         id="stop12" />
      <stop
         style="stop-color:#CDCDCD"
         offset="1"
         id="stop14" />
    </linearGradient>
    <linearGradient
       inkscape:collect="always"
       xlink:href="#XMLID_2_"
       id="linearGradient2824"
       gradientUnits="userSpaceOnUse"
       gradientTransform="matrix(2.1657,10.4264,10.4264,-2.1657,-5507.3048,-6813.2385)"
       x1="-1292.1372"
       y1="381.1807"
       x2="-1289.9851"
       y2="381.1807" />
    <linearGradient
       inkscape:collect="always"
       xlink:href="#XMLID_2_"
       id="linearGradient2835"
       gradientUnits="userSpaceOnUse"
       gradientTransform="matrix(2.1657,10.4264,10.4264,-2.1657,-5507.3048,-6813.2385)"
       x1="-1292.1372"
       y1="381.1807"
       x2="-1289.9851"
       y2="381.1807" />
    <linearGradient
       inkscape:collect="always"
       xlink:href="#XMLID_2_"
       id="linearGradient2838"
       gradientUnits="userSpaceOnUse"
       gradientTransform="matrix(2.1657,12.148492,10.4264,-2.5234011,-5508.8048,-7961.4036)"
       x1="-1292.1372"
       y1="381.1807"
       x2="-1289.9851"
       y2="381.1807" />
  </defs>
  <sodipodi:namedview
     bordercolor="#666666"
     borderopacity="1.0"
     id="base"
     inkscape:pageopacity="0.0"
     inkscape:pageshadow="2"
     inkscape:window-height="738"
     inkscape:window-width="1280"
     pagecolor="#ffffff"
     showgrid="false"
     inkscape:zoom="2"
     inkscape:cx="2.7610016"
     inkscape:cy="48.580002"
     inkscape:window-x="-4"
     inkscape:window-y="-3"
     inkscape:window-maximized="1"
     inkscape:current-layer="Layer_1" />
  <path
     style="fill:#4165a5"
     id="path5"
     d="m 138.11856,132.55853 c 0,7.74062 -13.723,5.44691 -18.417,5.44691 -12.643,0 -25.286001,0 -37.930001,0 -24.224,0 -48.448,0 -72.67,0 -6.3819997,0 -8.6199997,-3.21339 -8.6199997,-9.31422 0,-10.17172 0,-20.33844 0,-30.505133 0,-27.023993 0,-54.042959 0,-81.066936 0,-4.799026 -1.999,-16.35881057 5.582,-16.35881057 6.7809997,0 13.5629997,0 20.3439997,0 27.66,0 55.32,0 82.980001,0 7.578,0 15.157,0 22.736,0 7.631,0 5.994,9.24301157 5.994,14.30981957 0,26.607766 0,53.213523 0,79.819275 0.001,12.555685 0.001,25.114395 0.001,37.669095" />
  <path
     style="fill:#ffffff"
     id="path7"
     d="m 135.36656,129.09414 c 0,8.89372 -14.27,6.12412 -18.844,6.12412 -13.041,0 -26.082001,0 -39.123001,0 -22.688,0 -45.376,0 -68.064,0 -7.8879997,0 -6.1189997,-10.95373 -6.1189997,-17.1396 0,-15.03298 0,-30.065953 0,-45.101261 0,-15.754217 0,-31.513094 0,-47.26964 0,-5.522889 -2.331,-21.2176821 5.3949997,-21.2176821 40.21,0 80.424,0 120.634001,0 7.362,0 6.121,8.8016681 6.121,14.6869241 0,13.762946 0,27.528223 0,41.29117 0,22.874549 0,45.752589 0,68.625969" />
  <path
     style="fill:#f4f4f4"
     id="path9"
     d="m 130.37353,122.27269 c 0,8.6665 -14.891,5.78621 -19.271,5.78621 -13.416996,0 -26.834996,0 -40.251996,0 -13.758,0 -27.515,0 -41.273,0 -4.44,0 -16.747,2.65192 -20.418,-1.69648 -4.1110004,-4.86923 -1.4330004,-21.63714 -1.4330004,-27.48278 0,-16.834325 0,-33.66865 0,-50.501811 0,-10.762643 0,-21.522955 0,-32.283268 0,-8.6338838 10.9600004,-6.270926 15.7170004,-6.270926 21.114,0 42.231,0 63.345,0 9.29,0 18.576996,0 27.865996,0 3.491,0 11.444,-1.667353 14.287,1.691822 2.979,3.515307 1.433,13.454177 1.433,17.717521 0,12.534862 0,25.069723 0,37.604584 -0.001,18.479541 -0.001,36.956748 -0.001,55.435128" />
  <path
     style="fill:url(#linearGradient2838)"
     id="path16"
     d="m 40.337154,99.472769 c 0,-2.635607 -0.16,-25.93777 0.158,-25.93777 4.347,0 8.692,0 13.037,0 2.054,0 11.686,-1.654536 13.197,0 1.506,1.649876 -0.915,25.93777 -0.158,25.93777 -8.745,0 -17.49,0 -26.234,0 m 31.336,0 c 0,-2.635607 -0.16,-25.93777 0.157,-25.93777 4.348,0 8.692,0 13.039,0 2.052,0 11.684,-1.654536 13.194,0 1.506996,1.649876 -0.915,25.93777 -0.157,25.93777 -8.745,0 -17.489,0 -26.233,0 m -31.336,-31.698353 c 0,-2.639102 -0.16,-25.959909 0.158,-25.959909 4.347,0 8.692,0 13.037,0 2.054,0 11.686,-1.656867 13.197,0 1.509,1.652206 -0.917,25.959909 -0.158,25.959909 -8.745,0 -17.49,0 -26.234,0 m 31.336,0 c 0,-2.639102 -0.16,-25.959909 0.157,-25.959909 4.348,0 8.692,0 13.039,0 2.052,0 11.684,-1.656867 13.194,0 1.508996,1.652206 -0.915,25.959909 -0.157,25.959909 -8.745,0 -17.489,0 -26.233,0 M 103.00915,15.672831 c -6.614996,0 -4.944996,1.669684 -4.944996,9.171026 0,6.15907 2.278996,11.208901 -3.47,11.208901 -6.484,0 -12.967,0 -19.451,0 -5.749,0 -3.47,-5.049831 -3.47,-11.208901 0,-2.971175 0,-5.94235 0,-8.911194 0,-0.247015 -4.541,-0.723568 -4.945,-0.259832 -1.782,2.041372 0,16.182998 0,19.389536 0,2.480639 -26.391,0.519664 -26.391,0.730559 0,-6.376956 0,-12.752747 0,-19.129703 0,-1.998261 -3.026,-0.990392 -4.431,-0.990392 -1.115,0 -0.514,6.022746 -0.514,7.172765 0,2.983991 1.641,13.207162 -1.439,13.207162 -6.592,0 -13.184,0 -19.776,0 -3.511,0 -3.833,5.760584 -1.022,5.760584 6.592,0 13.184,0 19.776,0 4.385,0 2.461,5.447153 2.461,9.930714 0,2.002921 0.792,16.029195 -0.663,16.029195 -5.967,0 -11.934,0 -17.899,0 -0.637,0 -4.656,-0.588409 -5.115,0 -0.583,0.748037 -0.44,5.760583 0.663,5.760583 5.967,0 11.934,0 17.899,0 6.402,0 5.115,0.477719 5.115,7.967409 0,2.724159 1.623,16.116581 0,17.97036 -1.849,2.114777 -14.339,0 -17.007,0 -2.165,0 -4.333,0 -6.498,0 -0.114,0 -0.543,5.287527 -0.172,5.762917 1.574,2.0204 14.556,0 17.005,0 5.873,0 6.672,-1.62308 6.672,5.28053 0,3.84272 0,7.68427 0,11.5235 0,3.94991 -0.284,3.57356 3.205,3.57356 3.56,0 1.74,-11.52466 1.74,-15.09706 0,-7.38832 1.721,-5.28053 7.93,-5.28053 5.95,0 11.898,0 17.847,0 1.332,0 0.614,14.67643 0.614,16.80403 0,4.69212 4.945,5.55085 4.945,1.45646 0,-1.71396 -0.166,-18.26049 0.157,-18.26049 5.534,0 11.065,0 16.597,0 4.709,0 9.637,-2.56337 9.637,3.57473 0,1.9901 -0.572,16.80286 0.513996,16.80286 1.403,0 4.432,1.00554 4.432,-0.99039 0,-4.07225 0,-8.14451 0,-12.21327 0,-7.09587 -1.021,-7.17393 4.984,-7.17393 5.973,0 11.948,0 17.922,0 0.105,0 0.539,-5.29452 0.169,-5.762917 -0.459,-0.575592 -4.355,0 -4.985,0 -5.973,0 -11.948,0 -17.924,0 -0.35,0 -0.166,-14.711389 -0.166,-16.016376 0,-6.240632 -2.033,-9.921393 3.605,-9.921393 6.022,0 12.044,0 18.068,0 2.178,0 1.401,-1.239737 1.401,-3.734358 0,-3.030598 -1.137,-2.026225 -3.606,-2.026225 -6.022,0 -12.044,0 -18.068,0 -3.023,0 -1.4,-11.05976 -1.4,-14.004136 0,-2.822033 -1.574,-11.956939 1.4,-11.956939 6.427,0 12.85,0 19.273,0 3.466,0 3.105,-5.760583 1.755,-5.760583 -5.309,0 -10.619,0 -15.928,0 -4.436,0 -6.501,1.799017 -6.501,-3.574731 0,-5.59979 0,-11.20191 0,-16.804031" />
</svg>
